HIERARCHY
ROOT Hips
{
    OFFSET 0.000000 0.000000 0.000000
    CHANNELS 6 Xposition Yposition Zposition Zrotation Xrotation Yrotation
        JOINT Spine1
        {
            OFFSET -0.000000 23.269398 0.000000
            CHANNELS 3 Zrotation Xrotation Yrotation
            JOINT Neck
            {
                OFFSET -0.000000 18.032967 0.000000
                CHANNELS 3 Zrotation Xrotation Yrotation
                JOINT Head
                {
                    OFFSET -0.000000 13.091072 1.689171
                    CHANNELS 3 Zrotation Xrotation Yrotation
                    End Site
                    {
                        OFFSET -0.000000 16.891708 0.000000
                    }
                }
            }
            JOINT LeftShoulder
            {
                OFFSET 3.336773 14.146137 -0.012206
                CHANNELS 3 Zrotation Xrotation Yrotation
                JOINT LeftArm
                {
                    OFFSET 11.765518 0.000000 0.000000
                    CHANNELS 3 Zrotation Xrotation Yrotation
                    JOINT LeftForeArm
                    {
                        OFFSET 25.163450 0.000000 0.000000
                        CHANNELS 3 Zrotation Xrotation Yrotation
                        JOINT LeftHand
                        {
                            OFFSET 21.783554 0.000000 0.000000
                            CHANNELS 3 Zrotation Xrotation Yrotation
                            End Site
                            {
                                OFFSET 12.668781 0.000000 0.000000
                            }
                        }
                    }
                }
            }
            JOINT RightShoulder
            {
                OFFSET -3.409204 14.146137 -0.012206
                CHANNELS 3 Zrotation Xrotation Yrotation
                JOINT RightArm
                {
                    OFFSET -11.765518 0.000000 0.000000
                    CHANNELS 3 Zrotation Xrotation Yrotation
                    JOINT RightForeArm
                    {
                        OFFSET -25.163450 0.000000 0.000000
                        CHANNELS 3 Zrotation Xrotation Yrotation
                        JOINT RightHand
                        {
                            OFFSET -21.783554 0.000000 0.000000
                            CHANNELS 3 Zrotation Xrotation Yrotation
                            End Site
                            {
                                OFFSET -12.668781 0.000000 0.000000
                            }
                        }
                    }
                }
            }
        }
        JOINT LeftUpLeg
    {
        OFFSET 8.445854 0.000000 0.000000
        CHANNELS 3 Zrotation Xrotation Yrotation
        JOINT LeftLeg
        {
            OFFSET -0.000000 -40.674755 0.000000
            CHANNELS 3 Zrotation Xrotation Yrotation
            JOINT LeftFoot
            {
                OFFSET -0.000000 -37.111794 0.000000
                CHANNELS 3 Zrotation Xrotation Yrotation
                JOINT LeftToeBase
                {
                    OFFSET -0.000000 -5.489805 12.668781
                    CHANNELS 3 Zrotation Xrotation Yrotation
                    End Site
                    {
                        OFFSET -0.000000 0.000000 3.378341
                    }
                }
            }
        }
    }
    JOINT RightUpLeg
    {
        OFFSET -8.445854 0.000000 0.000000
        CHANNELS 3 Zrotation Xrotation Yrotation
        JOINT RightLeg
        {
            OFFSET -0.000000 -40.674755 0.000000
            CHANNELS 3 Zrotation Xrotation Yrotation
            JOINT RightFoot
            {
                OFFSET -0.000000 -37.111794 0.000000
                CHANNELS 3 Zrotation Xrotation Yrotation
                JOINT RightToeBase
                {
                    OFFSET -0.000000 -5.489805 12.668781
                    CHANNELS 3 Zrotation Xrotation Yrotation
                    End Site
                    {
                        OFFSET -0.000000 0.000000 3.378341
                    }
                }
            }
        }
    }
}
MOTION
Frames:    4
Frame Time:    0.008333
17.893864    83.630981    102.203323    -0.078292    -7.843763    -163.394638    5.626469    39.896542    -9.122036    -6.519620    23.842642    -0.228180    8.837869    -43.157887    0.014234    7.486712    4.517480    6.470634    -32.522144    38.933285    -54.373360    28.447050    5.300725    -41.478214    65.140411    0.565598    -24.174715    -9.835729    6.910638    -0.098729    39.305355    35.656433    42.354420    -37.269695    1.716498    57.372112    -65.027634    12.239443    16.729910    4.259508    -18.897034    0.363953    -4.840827    20.122719    -1.447396    0.475698    -8.980765    14.806738    0.353836    0.655711    0.398479    0.717641    -1.415230    11.789053    -2.785242    -4.958213    6.296745    0.395687    -3.662678    0.671525    -0.764633    -0.508975    3.383631    
17.930027    83.585594    102.173027    0.101851    -7.696537    -163.382065    5.866266    39.986725    -9.173989    -6.529788    23.851139    -0.214534    8.883085    -43.173416    0.038639    7.489253    4.511784    6.474077    -32.509300    38.943378    -54.382008    28.432932    5.300243    -41.472488    65.130989    0.564120    -24.169447    -9.838703    6.914532    -0.102261    39.311543    35.654694    42.356125    -37.279263    1.728659    57.379124    -65.023468    12.249313    16.748335    4.547175    -18.903391    0.509889    -4.832216    20.429644    -0.641565    0.295279    -9.180844    13.863334    0.341526    0.650613    0.421375    0.995003    -1.297713    11.832152    -2.855309    -4.965568    6.291700    0.389067    -3.670352    0.648094    -0.761442    -0.503515    3.362998    
17.893730    83.630493    102.193298    -0.074678    -7.844589    -163.376999    5.640613    39.895355    -9.140568    -6.532023    23.854151    -0.213553    8.911799    -43.171776    0.046684    7.491470    4.519793    6.476287    -32.500462    38.937584    -54.401695    28.414869    5.317267    -41.456379    65.162415    0.555721    -24.175112    -9.844301    6.916558    -0.114095    39.311451    35.669441    42.372734    -37.277267    1.740706    57.364140    -65.037933    12.253263    16.743729    4.250162    -18.982437    0.374030    -4.777260    20.365555    -0.559544    0.293518    -9.150056    13.881311    0.352702    0.643607    0.376686    0.686827    -1.412263    11.791026    -2.710770    -4.965950    6.276151    0.325074    -3.655239    0.684538    -0.749491    -0.524311    3.366243    
17.892204    83.630753    102.186516    -0.080860    -7.840862    -163.370712    5.641876    39.900887    -9.141354    -6.525526    23.853598    -0.213542    8.923265    -43.166973    0.051725    7.495903    4.516246    6.479259    -32.482712    38.954636    -54.427326    28.420780    5.330690    -41.435158    65.186981    0.559722    -24.172337    -9.845804    6.921671    -0.118261    39.330688    35.667458    42.362728    -37.281231    1.742087    57.364792    -65.035995    12.250881    16.754465    4.252982    -18.881172    0.362802    -4.837121    20.119041    -1.453231    0.479272    -8.987662    14.798016    0.337958    0.633578    0.396043    0.680508    -1.398105    11.789753    -2.709357    -4.970642    6.304703    0.358105    -3.665900    0.650997    -0.754974    -0.509645    3.354741    
